ply
format ascii 1.0
element vertex 174
property double x
property double y
property double z
element face 1
property list int8 int32 vertex_indices
end_header
-2 4 0.0
-1.5612062596031 4.0184710117223 0.0
-1.2102661568387 4.0379676840981 0.0
-0.8788227264501 4.3304177697351 0.0
-0.5863726408131 4.8568279238816 0.0
-0.5278826236857 5.2662580437734 0.0
-0.5863726408131 5.5587081294104 0.0
-0.8203327093227 5.8121648702958 0.0
-1 6 0.0
-1.0737894502081 6.4555550586972 0.0
-0.8398293816985 6.6895151272068 0.0
-0.5668759684373 6.8064951614616 0.0
-0.1769425209214 6.8454885062132 0.0
0.2324875989704 6.8844818509648 0.0
0.6224210464864 6.9039785233406 0.0
1.051347838754 6.8259918338374 0.0
1.343797924391 6.5530384205762 0.0
1.343797924391 6.2020983178118 0.0
1.2268178901362 5.8511582150474 0.0
1.0123544940024 5.6366948189136 0.0
0.856381114996 5.3442447332766 0.0
0.6419177188622 5.0712913200154 0.0
0.7978910978686 4.6813578724994 0.0
1.1098378558814 4.3694111144867 0.0
1.44128128627 4.2329344078561 0.0
1.9092014232891 4.1354510459771 0.0
2.3576248879325 4.0964577012255 0.0
2.7280616630727 4.0964577012255 0.0
3 4 0.0
3.1569884553403 3.7065242537095 0.0
3.3714518514741 3.3750808233209 0.0
3.5274252304805 3.1021274100597 0.0
3.6444052647353 2.8096773244227 0.0
3.6833986094869 2.5172272387857 0.0
3.7223919542385 2.1272937912698 0.0
3.7223919542385 1.7763536885054 0.0
3.7613852989901 1.425413585741 0.0
3.7613852989901 0.9769901210976 0.0
3.7808819713659 0.5285666564542 0.0
3.6833986094869 0.1191365365624 0.0
3.3714518514741 0.1191365365624 0.0
3.0790017658371 0.2166198984414 0.0
2.7865516802001 0.3920899498236 0.0
2.6305783011937 0.743030052588 0.0
2.5720882840663 1.0549768106008 0.0
2.5135982669389 1.425413585741 0.0
2.4551082498115 1.7568570161296 0.0
2.3381282155567 2.1467904636456 0.0
2.2406448536777 2.4977305664099 0.0
2.0066847851681 2.7511873072953 0.0
1.6947380271554 2.8291739967985 0.0
1.4022879415184 2.7901806520469 0.0
1.3632945967668 2.4587372216583 0.0
1.3243012520152 2.0688037741424 0.0
1.343797924391 1.7373603437538 0.0
1.4217846138942 1.3864202409894 0.0
1.5582613205248 0.9964867934734 0.0
1.636248010028 0.7040367078364 0.0
1.7532280442828 0.3920899498236 0.0
1.8321189392221 0.1347941548255 0.0
1.8947494122743 -0.2096734469616 0.0
1.9417222670635 -0.5228258122226 0.0
1.9886951218526 -0.7890053226945 0.0
2 -1 0.0
2.0200103583787 -1.3057067253751 0.0
2.0513255949048 -1.5562286175839 0.0
2.0513255949048 -1.8537233645819 0.0
2.0926774094857 -2.2182005252112 0.0
2.124332034638 -2.5136436932991 0.0
2.19819282666 -2.7563291527999 0.0
2.1876412849426 -2.9884630705832 0.0
2.2028624631421 -3.167415611357 0.0
2.2028624631421 -3.3976520916319 0.0
2.2028624631421 -3.6278885719068 0.0
2.2098393261808 -3.8441713261044 0.0
2.1666312758284 -4.0890169447679 0.0
2.1378259089268 -4.3050571965297 0.0
2.123423225476 -4.5499028151931 0.0
2.0514098082221 -4.765943066955 0.0
2.2818527434347 -4.9531779518152 0.0
2.6563225131552 -5.0107886856184 0.0
3 -5 0.0
3.1748191173837 -5.1980235704786 0.0
3.1460137504821 -5.4428691891421 0.0
2.9299734987202 -5.6157013905515 0.0
2.6995305635076 -5.6445067574531 0.0
2.3538661606887 -5.6877148078055 0.0
2.0802151751237 -5.6733121243547 0.0
1.7777588226571 -5.6301040740023 0.0
1.5185105205429 -5.5004799229452 0.0
1.4320944198381 -5.1836208870279 0.0
1.3888863694858 -4.6651242827994 0.0
1.4032890529366 -4.218641095825 0.0
1.374483686035 -3.8585740095552 0.0
1.302470268781 -3.5417149736379 0.0
1.2880675853302 -3.124037153565 0.0
1.2880675853302 -2.7495673838444 0.0
1.2304568515271 -2.4471110313779 0.0
1.1296380673716 -2.2454734630668 0.0
 1 -2 0.0
0.9135978156097 -1.683768808486 0.0
0.7119602472987 -1.4389231898226 0.0
0.4671146286353 -1.1652722042576 0.0
0.2654770603242 -0.9780373193974 0.0
 0 -0.8340104848895 0.0
-0.3106302777074 -0.8052051179879 0.0
-0.3970463784121 -1.0068426862989 0.0
-0.4546571122153 -1.2228829380608 0.0
-0.5554758963708 -1.4533258732734 0.0
-0.6274893136247 -1.7413795422892 0.0
-0.6706973639771 -2.0006278444034 0.0
-0.814724198485 -2.2742788299684 0.0
-0.9587510329929 -2.4759163982794 0.0
-1.0451671336976 -2.6775539665905 0.0
-1.1459859178532 -3.0232183694094 0.0
-1.2179993351071 -3.325674721876 0.0
-1.2035966516563 -3.6569364412442 0.0
-1.2035966516563 -3.9305874268092 0.0
-1.2035966516563 -4.2474464627265 0.0
-1.2035966516563 -4.5210974482915 0.0
-1.2035966516563 -4.8523591676597 0.0
-1.1171805509516 -5.1404128366755 0.0
-0.9299456660913 -5.3564530884373 0.0
-0.9875563998945 -5.6301040740023 0.0
-1.4484422703197 -5.7165201747071 0.0
-1.7076905724339 -5.7165201747071 0.0
-1.9669388745481 -5.7021174912563 0.0
-2.2117844932116 -5.6877148078055 0.0
-2.4422274284242 -5.58689602365 0.0
-2.6150596298337 -5.3852584553389 0.0
-2.7014757305384 -5.1116074697739 0.0
-2.2549925435639 -5.0683994194215 0.0
-2 -5 0.0
-1.7606629953365 -4.7237105181008 0.0
-1.6825480149347 -4.3819574788428 0.0
-1.7411342502361 -4.1280837925368 0.0
-1.780191740437 -3.8839744787811 0.0
-1.8290136031881 -3.6105720473746 0.0
-1.8973642110398 -3.3371696159682 0.0
-1.9461860737909 -3.0930603022125 0.0
-1.9559504463411 -2.8587153610069 0.0
-1.90712858359 -2.5853129296005 0.0
-1.6923123874849 -2.1947380275913 0.0
-1.526318054131 -1.9018068510844 0.0
-1.3407949756767 -1.6186400471278 0.0
-1.3505593482269 -1.3257088706209 0.0
-1.3603237207771 -1.0132489490135 0.0
-1.4256187384914 -0.6875165338397 0.0
-1.5891290376216 -0.258301998623 0.0
-1.6300066124041 0.2117901113763 0.0
-1.6095678250129 0.6614434339843 0.0
-1.5891290376216 1.090657969201 0.0
-1.5686902502303 1.540311291809 0.0
-1.5891290376216 1.989964614417 0.0
-1.5278126754478 2.4600567244162 0.0
-1.8343944863169 2.7053221731115 0.0
-2.1614150845772 2.6235670235464 0.0
-2.5906296197939 2.4396179370249 0.0
-2.9380890054456 2.1739137009384 0.0
-3.0811605171845 1.8877706774606 0.0
-3.2446708163146 1.6016276539828 0.0
-3.2446708163146 1.1724131187661 0.0
-3.2446708163146 0.7431985835493 0.0
-3.2855483910972 0.2117901113763 0.0
-3.5512526271837 0 0.0
-4 0 0.0
-4.4914368471822 0.3344228357239 0.0
-4.3892429102259 0.9067088826795 0.0
-4.0417835245743 1.5198725044177 0.0
-4 2 0.0
-3.7352017137052 2.6644445983289 0.0
-3.2855483910972 3.1573586376642 0.0
-2.870268545826 3.6448610647216 0.0
-2.4188774096617 3.8976401009736 0.0
3 0 1 2