ply
format ascii 1.0
element vertex 29
property double x
property double y
property double z
element face 1
property list int8 int32 vertex_indices
end_header
0.1167925604882 -1.7473200003801 0.0
0.6550531735426 -3.1057872618983 0.0
0.8088419201295 -5.8483532426993 0.0
3.577039358695 -6.0790363625798 0.0
3.8077224785755 -4.5155174389456 0.0
2.8850958621477 -4.2686581262438 0.0
2.6894994649749 -2.2847518120623 0.0
2.4659607253488 -0.3846725252406 0.0
1.9470377538864 1.7750821772598 0.0
2.4590340870582 0.3435822253304 0.0
3.4516800391261 -0.3564943934964 0.0
4.5906106578144 0.6779471776059 0.0
3.7781932054947 4.6745169027273 0.0
1.550596965263 5.0938291361827 0.0
2.1281038292425 6.8824346725757 0.0
-1.9527239851532 7.2887508618878 0.0
-1.2460871341756 5.1511743876805 0.0
-3.3129999232851 4.1795487175863 0.0
-5.0795920507292 0.4520393286794 0.0
-4.0903004593605 -0.5372522626893 0.0
-2.8006882063264 -0.3429271286704 0.0
-2.2353787255443 1.759317502988 0.0
-2 -1 0.0
-2.6218028141813 -2.6271377830286 0.0
-2.3522906688731 -4.340464992488 0.0
-3.7191022629362 -4.9949944882366 0.0
-2.8720640919675 -6.2077991421236 0.0
-0.3502004465834 -6.0730430694695 0.0
-0.5812108568476 -3.7629389668275 0.0
3 0 1 2