ply
format ascii 1.0
element vertex 39
property double x
property double y
property double z
element face 1
property list uint8 int32 vertex_indices
end_header
3.38 0.47 0.0
3.66 0.25 0.0
3.91 0.52 0.0
4.58 1.91 0.0
4.83 2.33 0.0
5.26 2.48 0.0
5.33 2.17 0.0
6.12 0.52 0.0
6.44 0.30 0.0
6.59 0.64 0.0
6.15 2.36 0.0
5.91 3.45 0.0
5.74 4.69 0.0
5.79 5.28 0.0
6.25 5.24 0.0
7.48 4.56 0.0
7.47 4.66 0.0
7.65 5.04 0.0
7.34 5.12 0.0
6.98 5.52 0.0
5.61 6.63 0.0
5.31 6.87 0.0
5.32 7.17 0.0
5.25 7.61 0.0
5.02 7.72 0.0
4.81 7.72 0.0
4.68 7.45 0.0
4.67 7.10 0.0
4.60 6.83 0.0
4.36 6.58 0.0
3.54 5.85 0.0
2.23 4.93 0.0
2.29 4.71 0.0
2.62 4.55 0.0
3.89 5.37 0.0
4.33 5.28 0.0
4.22 4.76 0.0
4.0 3.0 0.0
3.82 2.36 0.0
3 0 1 2