ply
format ascii 1.0
element vertex 31
property double x
property double y
property double z
element face 1
property list int8 int32 vertex_indices
end_header
-2.0 7.0 0.0
-2.0 6.0 0.0
-3.0 5.0 0.0
-5.0 5.0 0.0
-6.0 4.0 0.0
-5.0 3.0 0.0
-3.0 3.0 0.0
-3.0 1.0 0.0
-3.0 -1.0 0.0
-3.0 -2.0 0.0
-4.0 -3.0 0.0
-5.0 -5.0 0.0
-4.0 -5.0 0.0
-3.0 -4.0 0.0
-1.0 -2.0 0.0
0.0 -1.0 0.0
1.0 -2.0 0.0
3.0 -4.0 0.0
4.0 -5.0 0.0
5.0 -5.0 0.0
4.0 -3.0 0.0
3.0 -1.0 0.0
3.0 1.0 0.0
3.0 3.0 0.0
5.0 3.0 0.0
6.0 4.0 0.0
5.0 5.0 0.0
3.0 5.0 0.0
2.0 6.0 0.0
2.0 7.0 0.0
0.0 7.0 0.0
3 0 1 2